{
  "accessors": [
    {
      "bufferView": 2,
      "componentType": 5126,
      "count": 5719,
      "max": [
        0.9971029758453369,
        0.007474000100046396,
        2.7014551162719727
      ],
      "min": [
        -0.9984220266342163,
        -0.6269159913063049,
        0.014878000132739544
      ],
      "type": "VEC3"
    },
    {
      "bufferView": 2,
      "byteOffset": 68628,
      "componentType": 5126,
      "count": 5719,
      "max": [
        0.9997778534889221,
        0.9654191732406616,
        0.9999827146530151
      ],
      "min": [
        -0.999951958656311,
        -0.9999830722808838,
        -0.9999769926071167
      ],
      "type": "VEC3"
    },
    {
      "bufferView": 1,
      "componentType": 5126,
      "count": 5719,
      "max": [
        0.9846510291099548,
        0.9988840222358704
      ],
      "min": [
        0.10602500289678574,
        0.009500999934971333
      ],
      "type": "VEC2"
    },
    {
      "bufferView": 0,
      "componentType": 5125,
      "count": 30984,
      "type": "SCALAR"
    },
    {
      "bufferView": 2,
      "byteOffset": 137256,
      "componentType": 5126,
      "count": 4891,
      "max": [
        0.9971029758453369,
        0.6088929772377014,
        2.6931049823760986
      ],
      "min": [
        -0.987637996673584,
        -0.06379199773073196,
        0.014878000132739544
      ],
      "type": "VEC3"
    },
    {
      "bufferView": 2,
      "byteOffset": 195948,
      "componentType": 5126,
      "count": 4891,
      "max": [
        0.9990022778511047,
        0.9999446868896484,
        0.9993440508842468
      ],
      "min": [
        -0.9997658133506775,
        -0.21970787644386292,
        -0.9994486570358276
      ],
      "type": "VEC3"
    },
    {
      "bufferView": 1,
      "byteOffset": 45752,
      "componentType": 5126,
      "count": 4891,
      "max": [
        0.8512610197067261,
        0.9949749708175659
      ],
      "min": [
        0.161312997341156,
        0.0731939971446991
      ],
      "type": "VEC2"
    },
    {
      "bufferView": 0,
      "byteOffset": 123936,
      "componentType": 5125,
      "count": 27720,
      "type": "SCALAR"
    }
  ],
  "asset": {
    "extras": {
      "author": "RafaeoAchaque (https://sketchfab.com/RafaeoAchaque)",
      "license": "CC-BY-4.0 (http://creativecommons.org/licenses/by/4.0/)",
      "source": "https://sketchfab.com/3d-models/doritos-243a539d3c1640498536f3d60d3d884b",
      "title": "Doritos"
    },
    "generator": "Sketchfab-12.67.0",
    "version": "2.0"
  },
  "bufferViews": [
    {
      "buffer": 0,
      "byteLength": 234816,
      "name": "floatBufferViews",
      "target": 34963
    },
    {
      "buffer": 0,
      "byteLength": 84880,
      "byteOffset": 234816,
      "byteStride": 8,
      "name": "floatBufferViews",
      "target": 34962
    },
    {
      "buffer": 0,
      "byteLength": 254640,
      "byteOffset": 319696,
      "byteStride": 12,
      "name": "floatBufferViews",
      "target": 34962
    }
  ],
  "buffers": [
    {
      "byteLength": 574336,
      "uri": "scene.bin"
    }
  ],
  "extensionsRequired": [
    "KHR_materials_pbrSpecularGlossiness"
  ],
  "extensionsUsed": [
    "KHR_materials_pbrSpecularGlossiness"
  ],
  "images": [
    {
      "uri": "textures/frente.001_diffuse.png"
    },
    {
      "uri": "textures/frente.001_specularGlossiness.png"
    },
    {
      "uri": "textures/tras.001_diffuse.png"
    }
  ],
  "materials": [
    {
      "doubleSided": true,
      "extensions": {
        "KHR_materials_pbrSpecularGlossiness": {
          "diffuseFactor": [
            1.0,
            1.0,
            1.0,
            1.0
          ],
          "diffuseTexture": {
            "index": 0
          },
          "glossinessFactor": 1.0,
          "specularFactor": [
            0.05,
            0.05,
            0.05
          ],
          "specularGlossinessTexture": {
            "index": 1
          }
        }
      },
      "name": "frente.001"
    },
    {
      "doubleSided": true,
      "extensions": {
        "KHR_materials_pbrSpecularGlossiness": {
          "diffuseFactor": [
            1.0,
            1.0,
            1.0,
            1.0
          ],
          "diffuseTexture": {
            "index": 2
          },
          "glossinessFactor": 1.0,
          "specularFactor": [
            0.05,
            0.05,
            0.05
          ],
          "specularGlossinessTexture": {
            "index": 1
          }
        }
      },
      "name": "tras.001"
    }
  ],
  "meshes": [
    {
      "name": "Object_0",
      "primitives": [
        {
          "attributes": {
            "NORMAL": 1,
            "POSITION": 0,
            "TEXCOORD_0": 2
          },
          "indices": 3,
          "material": 0,
          "mode": 4
        }
      ]
    },
    {
      "name": "Object_1",
      "primitives": [
        {
          "attributes": {
            "NORMAL": 5,
            "POSITION": 4,
            "TEXCOORD_0": 6
          },
          "indices": 7,
          "material": 1,
          "mode": 4
        }
      ]
    }
  ],
  "nodes": [
    {
      "children": [
        1
      ],
      "matrix": [
        1.0,
        0.0,
        0.0,
        0.0,
        0.0,
        2.220446049250313e-16,
        -1.0,
        0.0,
        0.0,
        1.0,
        2.220446049250313e-16,
        0.0,
        0.0,
        0.0,
        0.0,
        1.0
      ],
      "name": "Sketchfab_model"
    },
    {
      "children": [
        2,
        3
      ],
      "name": "doritos_.obj.cleaner.materialmerger.gles"
    },
    {
      "mesh": 0,
      "name": "Object_2"
    },
    {
      "mesh": 1,
      "name": "Object_3"
    }
  ],
  "samplers": [
    {
      "magFilter": 9729,
      "minFilter": 9987,
      "wrapS": 10497,
      "wrapT": 10497
    }
  ],
  "scene": 0,
  "scenes": [
    {
      "name": "Sketchfab_Scene",
      "nodes": [
        0
      ]
    }
  ],
  "textures": [
    {
      "sampler": 0,
      "source": 0
    },
    {
      "sampler": 0,
      "source": 1
    },
    {
      "sampler": 0,
      "source": 2
    }
  ]
}
