{
	"asset":{
		"generator":"Khronos glTF Blender I/O v4.4.56",
		"version":"2.0"
	},
	"scene":0,
	"scenes":[
		{
			"name":"Scene",
			"nodes":[
				0
			]
		}
	],
	"nodes":[
		{
			"mesh":0,
			"name":"Can",
			"scale":[
				0.4759829044342041,
				0.4759829044342041,
				0.4759829044342041
			],
			"translation":[
				0,
				1.2364667654037476,
				0
			]
		}
	],
	"materials":[
		{
			"doubleSided":true,
			"name":"Material.001",
			"normalTexture":{
				"index":0,
				"scale":1.5
			},
			"pbrMetallicRoughness":{
				"baseColorTexture":{
					"index":1
				},
				"metallicRoughnessTexture":{
					"index":2
				}
			}
		},
		{
			"doubleSided":true,
			"name":"Alminium",
			"normalTexture":{
				"index":3
			},
			"pbrMetallicRoughness":{
				"baseColorTexture":{
					"index":4
				},
				"metallicRoughnessTexture":{
					"index":5
				}
			}
		},
		{
			"doubleSided":true,
			"name":"Material.003",
			"pbrMetallicRoughness":{
				"baseColorFactor":[
					0,
					0,
					0,
					1
				]
			}
		}
	],
	"meshes":[
		{
			"name":"Cylinder",
			"primitives":[
				{
					"attributes":{
						"POSITION":0,
						"NORMAL":1,
						"TEXCOORD_0":2
					},
					"indices":3,
					"material":0
				},
				{
					"attributes":{
						"POSITION":4,
						"NORMAL":5,
						"TEXCOORD_0":6
					},
					"indices":7,
					"material":1
				},
				{
					"attributes":{
						"POSITION":8,
						"NORMAL":9,
						"TEXCOORD_0":10
					},
					"indices":11,
					"material":2
				}
			]
		}
	],
	"textures":[
		{
			"sampler":0,
			"source":0
		},
		{
			"sampler":0,
			"source":1
		},
		{
			"sampler":0,
			"source":2
		},
		{
			"sampler":0,
			"source":3
		},
		{
			"sampler":0,
			"source":4
		},
		{
			"sampler":0,
			"source":5
		}
	],
	"images":[
		{
			"mimeType":"image/png",
			"name":"Monster_NormalMap",
			"uri":"Monster_NormalMap.png"
		},
		{
			"mimeType":"image/png",
			"name":"Monster_Diffuse",
			"uri":"Monster_Diffuse.png"
		},
		{
			"mimeType":"image/png",
			"name":"Monster_Metal-Monster_Roughness",
			"uri":"Monster_Metal-Monster_Roughness.png"
		},
		{
			"mimeType":"image/png",
			"name":"alminimum_normalmap",
			"uri":"alminimum_normalmap.png"
		},
		{
			"mimeType":"image/png",
			"name":"alminium_diffuse",
			"uri":"alminium_diffuse.png"
		},
		{
			"mimeType":"image/png",
			"name":"alminium_metal",
			"uri":"alminium_metal.png"
		}
	],
	"accessors":[
		{
			"bufferView":0,
			"componentType":5126,
			"count":185,
			"max":[
				1,
				2.2572081089019775,
				1
			],
			"min":[
				-1,
				-2.580284595489502,
				-1
			],
			"type":"VEC3"
		},
		{
			"bufferView":1,
			"componentType":5126,
			"count":185,
			"type":"VEC3"
		},
		{
			"bufferView":2,
			"componentType":5126,
			"count":185,
			"type":"VEC2"
		},
		{
			"bufferView":3,
			"componentType":5123,
			"count":804,
			"type":"SCALAR"
		},
		{
			"bufferView":4,
			"componentType":5126,
			"count":1912,
			"max":[
				1,
				2.332411289215088,
				1
			],
			"min":[
				-1,
				-2.594888925552368,
				-1
			],
			"type":"VEC3"
		},
		{
			"bufferView":5,
			"componentType":5126,
			"count":1912,
			"type":"VEC3"
		},
		{
			"bufferView":6,
			"componentType":5126,
			"count":1912,
			"type":"VEC2"
		},
		{
			"bufferView":7,
			"componentType":5123,
			"count":7437,
			"type":"SCALAR"
		},
		{
			"bufferView":8,
			"componentType":5126,
			"count":20,
			"max":[
				0.2939591705799103,
				2.2449758052825928,
				0.7680367231369019
			],
			"min":[
				-0.5708223581314087,
				1.554887294769287,
				-0.19082389771938324
			],
			"type":"VEC3"
		},
		{
			"bufferView":9,
			"componentType":5126,
			"count":20,
			"type":"VEC3"
		},
		{
			"bufferView":10,
			"componentType":5126,
			"count":20,
			"type":"VEC2"
		},
		{
			"bufferView":11,
			"componentType":5123,
			"count":30,
			"type":"SCALAR"
		}
	],
	"bufferViews":[
		{
			"buffer":0,
			"byteLength":2220,
			"byteOffset":0,
			"target":34962
		},
		{
			"buffer":0,
			"byteLength":2220,
			"byteOffset":2220,
			"target":34962
		},
		{
			"buffer":0,
			"byteLength":1480,
			"byteOffset":4440,
			"target":34962
		},
		{
			"buffer":0,
			"byteLength":1608,
			"byteOffset":5920,
			"target":34963
		},
		{
			"buffer":0,
			"byteLength":22944,
			"byteOffset":7528,
			"target":34962
		},
		{
			"buffer":0,
			"byteLength":22944,
			"byteOffset":30472,
			"target":34962
		},
		{
			"buffer":0,
			"byteLength":15296,
			"byteOffset":53416,
			"target":34962
		},
		{
			"buffer":0,
			"byteLength":14874,
			"byteOffset":68712,
			"target":34963
		},
		{
			"buffer":0,
			"byteLength":240,
			"byteOffset":83588,
			"target":34962
		},
		{
			"buffer":0,
			"byteLength":240,
			"byteOffset":83828,
			"target":34962
		},
		{
			"buffer":0,
			"byteLength":160,
			"byteOffset":84068,
			"target":34962
		},
		{
			"buffer":0,
			"byteLength":60,
			"byteOffset":84228,
			"target":34963
		}
	],
	"samplers":[
		{
			"magFilter":9729,
			"minFilter":9987
		}
	],
	"buffers":[
		{
			"byteLength":84288,
			"uri":"MonsterUltraNO.bin"
		}
	]
}
